<svg width="16" height="16" viewBox="0 0 16 16" fill="none" xmlns="http://www.w3.org/2000/svg">
<path d="M14.4191 4.24346C13.9443 4.45448 13.4329 4.59659 12.8968 4.66118C13.4448 4.33282 13.8636 3.8139 14.0628 3.19486C13.5503 3.49846 12.9829 3.71916 12.379 3.83759C11.8966 3.3219 11.2066 3 10.4454 3C8.73362 3 7.47616 4.59659 7.86266 6.25454C5.66103 6.14365 3.70701 5.08859 2.40003 3.48554C1.70563 4.67625 2.04045 6.23516 3.22039 7.0243C2.78653 7.0103 2.3785 6.8908 2.02107 6.69271C1.992 7.92002 2.87265 9.06875 4.14734 9.32498C3.77484 9.42618 3.36573 9.44986 2.95017 9.37019C3.28714 10.4231 4.26792 11.1886 5.42633 11.2101C4.3099 12.0843 2.90711 12.4751 1.5 12.3093C2.67349 13.0618 4.06552 13.5 5.56198 13.5C10.4842 13.5 13.2639 9.34328 13.096 5.61504C13.6149 5.24254 14.0638 4.7753 14.4191 4.24346Z" fill="#17191B"/>
</svg>
