<svg width="16" height="16" viewBox="0 0 16 16" fill="none" xmlns="http://www.w3.org/2000/svg">
<path d="M12.8593 3.46299C11.9531 3.03898 10.9841 2.73082 9.97102 2.55536C9.84661 2.7803 9.70125 3.08285 9.60104 3.32352C8.52412 3.16157 7.45712 3.16157 6.40001 3.32352C6.29981 3.08285 6.15116 2.7803 6.02563 2.55536C5.01147 2.73082 4.04136 3.04011 3.13511 3.46523C1.30721 6.22743 0.811693 8.92103 1.05945 11.5764C2.27181 12.4817 3.44674 13.0317 4.60184 13.3916C4.88704 12.9991 5.14139 12.5818 5.36052 12.1421C4.94319 11.9835 4.54347 11.7878 4.16579 11.5606C4.26599 11.4864 4.364 11.4088 4.45869 11.3289C6.76228 12.4064 9.26519 12.4064 11.5413 11.3289C11.6371 11.4088 11.7351 11.4864 11.8342 11.5606C11.4554 11.7889 11.0546 11.9846 10.6372 12.1432C10.8563 12.5818 11.1096 13.0002 11.3959 13.3927C12.5521 13.0328 13.7281 12.4829 14.9405 11.5764C15.2312 8.49815 14.4439 5.82929 12.8593 3.46299ZM5.67435 9.94336C4.98284 9.94336 4.41574 9.29779 4.41574 8.51164C4.41574 7.7255 4.97073 7.07881 5.67435 7.07881C6.378 7.07881 6.94508 7.72436 6.93297 8.51164C6.93406 9.29779 6.378 9.94336 5.67435 9.94336ZM10.3256 9.94336C9.63408 9.94336 9.06699 9.29779 9.06699 8.51164C9.06699 7.7255 9.62195 7.07881 10.3256 7.07881C11.0292 7.07881 11.5963 7.72436 11.5842 8.51164C11.5842 9.29779 11.0292 9.94336 10.3256 9.94336Z" fill="#17191B"/>
</svg>
