<svg width="16" height="16" viewBox="0 0 16 16" fill="none" xmlns="http://www.w3.org/2000/svg">
<path fill-rule="evenodd" clip-rule="evenodd" d="M8 1.5C6.23417 1.5 6.01425 1.50758 5.31983 1.54008C2.95817 1.64842 1.64733 2.95817 1.539 5.31983C1.50758 6.01425 1.5 6.23525 1.5 8C1.5 9.76583 1.50758 9.98683 1.539 10.6802C1.64733 13.0408 2.95817 14.3527 5.31983 14.461C6.01425 14.4924 6.23417 14.5 8 14.5C9.76583 14.5 9.98683 14.4924 10.6813 14.461C13.0386 14.3527 14.3548 13.0429 14.461 10.6802C14.4924 9.98683 14.5 9.76583 14.5 8C14.5 6.23525 14.4924 6.01425 14.461 5.31983C14.3548 2.96142 13.0429 1.64733 10.6813 1.54008C9.98683 1.50758 9.76583 1.5 8 1.5ZM8.00001 2.67188C9.73551 2.67188 9.94134 2.67838 10.6271 2.70979C12.3897 2.78996 13.2108 3.62521 13.2921 5.37371C13.3224 6.05946 13.3289 6.26421 13.3289 7.99971C13.3289 9.73521 13.3224 9.94104 13.2921 10.6257C13.2108 12.3731 12.3908 13.2105 10.6271 13.2907C9.94134 13.321 9.73659 13.3286 8.00001 13.3286C6.26451 13.3286 6.05868 13.3221 5.37401 13.2907C3.60818 13.2095 2.79026 12.371 2.70901 10.6257C2.67868 9.94104 2.67109 9.73521 2.67109 7.99971C2.67109 6.26421 2.67868 6.05837 2.70901 5.37371C2.78918 3.62412 3.61034 2.78887 5.37401 2.70871C6.05868 2.67729 6.26451 2.67188 8.00001 2.67188ZM4.66211 7.99986C4.66211 6.15603 6.15711 4.66211 7.99986 4.66211C9.84261 4.66211 11.3376 6.15711 11.3376 7.99986C11.3376 9.84369 9.84261 11.3376 7.99986 11.3376C6.15711 11.3376 4.66211 9.84369 4.66211 7.99986ZM7.99948 10.1663C6.8024 10.1663 5.83281 9.19676 5.83281 7.99967C5.83281 6.80367 6.8024 5.83301 7.99948 5.83301C9.19548 5.83301 10.1672 6.80259 10.1672 7.99967C10.1672 9.19676 9.19548 10.1663 7.99948 10.1663ZM10.6883 4.53098C10.6883 4.09981 11.0382 3.75098 11.4683 3.75098C11.9005 3.75098 12.2494 4.09981 12.2494 4.53098C12.2494 4.96214 11.8994 5.31098 11.4683 5.31098C11.0371 5.31098 10.6883 4.96106 10.6883 4.53098Z" fill="#17191B"/>
</svg>
