<svg width="24" height="25" viewBox="0 0 24 25" fill="none" xmlns="http://www.w3.org/2000/svg">
<path d="M9.63546 7.52199C9.77719 7.20818 10.2228 7.20818 10.3645 7.52199L12.4268 12.0881C12.4669 12.1769 12.538 12.2479 12.6267 12.288L17.1929 14.3503C17.5067 14.492 17.5067 14.9377 17.1929 15.0794L12.6267 17.1417C12.538 17.1817 12.4669 17.2528 12.4268 17.3416L10.3645 21.9077C10.2228 22.2215 9.77719 22.2215 9.63546 21.9077L7.57318 17.3416C7.5331 17.2528 7.46202 17.1817 7.37328 17.1417L2.80714 15.0794C2.49334 14.9377 2.49334 14.492 2.80714 14.3503L7.37328 12.288C7.46202 12.2479 7.5331 12.1769 7.57318 12.0881L9.63546 7.52199Z" fill="#F3B500" stroke="#17191B" stroke-width="1.5"/>
<path d="M12.714 1.6185C12.8024 1.3392 13.1976 1.3392 13.286 1.6185L13.6743 2.8451C13.7037 2.9382 13.7766 3.01113 13.8697 3.04059L15.0963 3.42883C15.3756 3.51723 15.3756 3.91246 15.0963 4.00086L13.8697 4.38909C13.7766 4.41856 13.7037 4.49149 13.6743 4.58458L13.286 5.81119C13.1976 6.09049 12.8024 6.09049 12.714 5.81119L12.3257 4.58458C12.2963 4.49149 12.2234 4.41856 12.1303 4.38909L10.9037 4.00086C10.6244 3.91246 10.6244 3.51723 10.9037 3.42883L12.1303 3.04059C12.2234 3.01113 12.2963 2.9382 12.3257 2.8451L12.714 1.6185Z" fill="#17191B"/>
<path d="M19.7184 6.48123C19.8147 6.21919 20.1853 6.21919 20.2816 6.48123L21.0269 8.50978C21.0573 8.59241 21.1224 8.65754 21.2051 8.6879L23.2336 9.43325C23.4957 9.52953 23.4957 9.90015 23.2336 9.99644L21.2051 10.7418C21.1224 10.7721 21.0573 10.8373 21.0269 10.9199L20.2816 12.9485C20.1853 13.2105 19.8147 13.2105 19.7184 12.9485L18.9731 10.9199C18.9427 10.8373 18.8776 10.7721 18.7949 10.7418L16.7664 9.99644C16.5043 9.90015 16.5043 9.52953 16.7664 9.43325L18.7949 8.6879C18.8776 8.65754 18.9427 8.59241 18.9731 8.50978L19.7184 6.48123Z" fill="#17191B"/>
</svg>
